<svg width="36" height="31" viewBox="0 0 36 31" fill="none" xmlns="http://www.w3.org/2000/svg">
<path d="M18.4545 30.4545L3.85227 15.8523C2.6875 14.6875 1.91098 13.3333 1.52273 11.7898C1.14394 10.2462 1.14867 8.71212 1.53693 7.1875C1.92519 5.65341 2.69697 4.31818 3.85227 3.18182C5.03599 2.01704 6.38542 1.24526 7.90057 0.866477C9.42519 0.478219 10.9451 0.478219 12.4602 0.866477C13.9848 1.25473 15.339 2.02651 16.5227 3.18182L18.4545 5.05682L20.3864 3.18182C21.5795 2.02651 22.9337 1.25473 24.4489 0.866477C25.964 0.478219 27.4792 0.478219 28.9943 0.866477C30.5189 1.24526 31.8731 2.01704 33.0568 3.18182C34.2121 4.31818 34.9839 5.65341 35.3722 7.1875C35.7604 8.71212 35.7604 10.2462 35.3722 11.7898C34.9934 13.3333 34.2216 14.6875 33.0568 15.8523L18.4545 30.4545ZM18.4545 26.0369L30.8409 13.6364C31.5985 12.8883 32.1004 12.0123 32.3466 11.0085C32.6023 10.0047 32.607 9.00568 32.3608 8.01136C32.1146 7.00757 31.6174 6.1411 30.8693 5.41193C30.0928 4.64489 29.2074 4.13826 28.2131 3.89205C27.2282 3.63636 26.2386 3.63636 25.2443 3.89205C24.25 4.14773 23.3551 4.65909 22.5597 5.42614L18.4545 9.41761L14.3494 5.42614C13.5634 4.65909 12.6686 4.14773 11.6648 3.89205C10.6705 3.63636 9.67614 3.63636 8.68182 3.89205C7.69697 4.13826 6.81629 4.64489 6.03977 5.41193C5.29167 6.1411 4.79451 7.00757 4.5483 8.01136C4.30208 9.00568 4.30682 10.0047 4.5625 11.0085C4.81818 12.0123 5.32008 12.8883 6.06818 13.6364L18.4545 26.0369Z" fill="#FB0B0B"/>
</svg>
