<svg width="36" height="31" viewBox="0 0 36 31" fill="none" xmlns="http://www.w3.org/2000/svg">
<path d="M18.4545 30.4545L3.85227 15.8523C2.6875 14.6875 1.91098 13.3333 1.52273 11.7898C1.14394 10.2462 1.14867 8.71212 1.53693 7.1875C1.92519 5.65341 2.69697 4.31818 3.85227 3.18182C5.03599 2.01704 6.38542 1.24526 7.90057 0.866477C9.42519 0.478219 10.9451 0.478219 12.4602 0.866477C13.9848 1.25473 15.339 2.02651 16.5227 3.18182L18.4545 5.05682L20.3864 3.18182C21.5795 2.02651 22.9337 1.25473 24.4489 0.866477C25.964 0.478219 27.4792 0.478219 28.9943 0.866477C30.5189 1.24526 31.8731 2.01704 33.0568 3.18182C34.2121 4.31818 34.9839 5.65341 35.3722 7.1875C35.7604 8.71212 35.7604 10.2462 35.3722 11.7898C34.9934 13.3333 34.2216 14.6875 33.0568 15.8523L18.4545 30.4545Z" fill="#FB0B0B"/>
</svg>
